<svg width="6988" height="874" viewBox="0 0 6988 874" fill="none" xmlns="http://www.w3.org/2000/svg">
<path d="M349.605 517.363H266.088V765H63.1231V60.9349H354.46C538.974 60.9349 676.874 105.607 676.874 287.207C676.874 388.204 624.433 448.413 551.599 481.432L718.632 765H490.418L349.605 517.363ZM266.088 225.055V363.926H377.767C437.006 363.926 465.169 334.792 465.169 294.976C465.169 255.16 437.006 225.055 377.767 225.055H266.088ZM772.044 60.9349H1329.47V234.766H975.009V324.11H1311.02V498.912H975.009V590.198H1333.35V765H772.044V60.9349ZM1567.02 234.766H1357.26V60.9349H1980.72V234.766H1769.99V765H1567.02V234.766ZM2317.04 517.363H2233.53V765H2030.56V60.9349H2321.9C2506.41 60.9349 2644.31 105.607 2644.31 287.207C2644.31 388.204 2591.87 448.413 2519.04 481.432L2686.07 765H2457.85L2317.04 517.363ZM2233.53 225.055V363.926H2345.2C2404.44 363.926 2432.61 334.792 2432.61 294.976C2432.61 255.16 2404.44 225.055 2345.2 225.055H2233.53ZM3062.01 777.625C2846.42 777.625 2692.98 643.609 2692.98 411.511C2692.98 179.412 2846.42 44.4258 3062.01 44.4258C3277.6 44.4258 3431.04 179.412 3431.04 411.511C3431.04 643.609 3277.6 777.625 3062.01 777.625ZM3062.01 607.678C3143.58 607.678 3220.3 550.382 3220.3 411.511C3220.3 272.64 3143.58 214.373 3062.01 214.373C2980.43 214.373 2903.71 272.64 2903.71 411.511C2903.71 550.382 2980.43 607.678 3062.01 607.678ZM3684.73 408.597C3684.73 527.075 3735.23 607.678 3838.17 607.678C3927.51 607.678 3968.3 555.237 3968.3 517.363V516.392H3815.84V362.955H4165.44V765H4007.15L4006.18 690.223C3963.45 750.433 3889.64 777.625 3803.21 777.625C3601.22 777.625 3473.03 632.927 3473.03 408.597C3473.03 186.21 3610.93 44.4258 3832.34 44.4258C3989.67 44.4258 4121.74 117.26 4161.56 285.265H3962.48C3949.85 245.448 3910.03 214.373 3835.26 214.373C3742.03 214.373 3684.73 287.207 3684.73 408.597ZM4552.87 517.363H4469.35V765H4266.38V60.9349H4557.72C4742.23 60.9349 4880.13 105.607 4880.13 287.207C4880.13 388.204 4827.69 448.413 4754.86 481.432L4921.89 765H4693.68L4552.87 517.363ZM4469.35 225.055V363.926H4581.03C4640.27 363.926 4668.43 334.792 4668.43 294.976C4668.43 255.16 4640.27 225.055 4581.03 225.055H4469.35ZM5157.99 60.9349H5380.38L5635.78 765H5415.34L5379.41 647.494H5155.08L5119.15 765H4902.58L5157.99 60.9349ZM5202.66 495.999H5332.79L5268.7 284.293L5202.66 495.999ZM5917.52 60.9349C6143.79 60.9349 6323.45 144.452 6323.45 412.482C6323.45 681.483 6143.79 765 5917.52 765H5674.74V60.9349H5917.52ZM5920.44 225.055H5877.71V600.88H5920.44C6032.12 600.88 6111.75 573.689 6111.75 412.482C6111.75 252.246 6032.12 225.055 5920.44 225.055ZM6387.46 60.9349H6944.88V234.766H6590.42V324.11H6926.43V498.912H6590.42V590.198H6948.77V765H6387.46V60.9349Z" fill="black"/>
<path d="M63 225H271.5C309.884 225 341 256.116 341 294.5V294.5C341 332.884 309.884 364 271.5 364H63V225Z" fill="#F2542D"/>
</svg>
